<?xml version="1.0" encoding="utf-8"?>
<!-- Generator: Adobe Illustrator 24.2.3, SVG Export Plug-In . SVG Version: 6.00 Build 0)  -->
<svg version="1.1" id="graficos" xmlns="http://www.w3.org/2000/svg" xmlns:xlink="http://www.w3.org/1999/xlink" x="0px" y="0px"
	 viewBox="0 0 777.58 367" style="enable-background:new 0 0 777.58 367;" xml:space="preserve">
<style type="text/css">
	.st0{fill:#1D1D1B;}
	.st1{font-family:'Roboto-Regular';}
	.st2{font-size:32.0253px;}
	.st3{fill:none;}
	.st4{fill:#1E1E1C;}
	.st5{font-family:'BarlowSemiCondensed-Light';}
	.st6{fill:none;stroke:#1D1E1C;stroke-width:0.9285;stroke-miterlimit:10;stroke-dasharray:2.5568,2.5568;}
	.st7{fill:#EF781F;}
	.st8{font-family:'Roboto-Black';}
	.st9{font-family:'Roboto-Bold';}
	.st10{font-size:36.2953px;}
	.st11{font-family:'Roboto-Medium';}
	.st12{fill:#777776;}
	.st13{fill:#C9C9C8;}
	.st14{fill:none;stroke:#1D1E1C;stroke-width:0.9285;stroke-miterlimit:10;}
</style>
<text transform="matrix(1 0 0 1 142.2374 26.5913)" class="st0 st1 st2">Similares a los gatos domésticos.</text>
<g>
	<rect x="0" y="332.98" class="st3" width="54.98" height="32.69"/>
	<text transform="matrix(1 0 0 1 8.7677 360.1992)"><tspan x="0" y="0" class="st4 st5 st2">c</tspan><tspan x="13.93" y="0" class="st4 st5 st2">m </tspan></text>
</g>
<g>
	<text transform="matrix(1 0 0 1 29.338 328.0093)" class="st4 st5 st2">0 </text>
</g>
<g>
	<text transform="matrix(1 0 0 1 22.1808 248.5366)"><tspan x="0" y="0" class="st4 st5 st2">4</tspan><tspan x="14.31" y="0" class="st4 st5 st2">0 </tspan></text>
</g>
<g>
	<text transform="matrix(1 0 0 1 22.1808 169.064)"><tspan x="0" y="0" class="st4 st5 st2">8</tspan><tspan x="14.31" y="0" class="st4 st5 st2">0 </tspan></text>
</g>
<line id="linea_media" class="st6" x1="74.23" y1="238.75" x2="777.58" y2="238.75"/>
<line id="linea_arriba" class="st6" x1="74.23" y1="159.49" x2="777.58" y2="159.49"/>
<rect x="442.29" y="332.98" class="st3" width="172.87" height="72.83"/>
<text transform="matrix(1 0 0 1 450.9044 360.3745)" class="st7 st8 st2">Panda rojo</text>
<rect x="451.17" y="204.27" class="st3" width="171.7" height="34.16"/>
<text transform="matrix(1 0 0 1 486.5089 231.4966)" class="st7 st9 st10">33 cm</text>
<g>
	<rect x="631.94" y="332.98" class="st3" width="105.08" height="72.83"/>
	<text transform="matrix(1 0 0 1 651.6759 360.3745)"><tspan x="0" y="0" class="st4 st11 st2">Gat</tspan><tspan x="47.38" y="0" class="st4 st11 st2">o</tspan></text>
</g>
<g>
	<rect x="147.32" y="332.98" class="st3" width="273.96" height="72.83"/>
	<text transform="matrix(1 0 0 1 209.9855 360.3745)"><tspan x="0" y="0" class="st4 st11 st2">Os</tspan><tspan x="37.04" y="0" class="st4 st11 st2">o </tspan><tspan x="63.25" y="0" class="st4 st11 st2">pand</tspan><tspan x="131.31" y="0" class="st4 st11 st2">a</tspan></text>
</g>
<path id="icono_gato" class="st12" d="M656.54,300.41c-1.4,0.6-2.58,1.13-3.78,1.62c-2.23,0.92-4.44,1.88-6.7,2.72
	c-1.65,0.61-3.4,0.94-5.03,1.6c-0.7,0.29-1.32,1.02-1.72,1.7c-0.57,0.97-0.94,2.07-1.32,3.15c-0.43,1.22-1.25,3.38-1.39,3.96
	c-0.23,0.95-0.46,1.93-0.91,2.78c-0.39,0.75-2.17,0.61-2.71-0.17c-0.84-1.21-1.1-2.6-1.06-4.06c0.02-0.65-0.06,0.26,0.06-0.37
	c0.41-2.11,0.81-4.24,1.39-6.31c0.64-2.31,1.48-4.56,2.23-6.84c0.08-0.25,0.14-0.61,0.33-0.72c1.47-0.85,2.24-2.3,3.23-3.58
	c0.53-0.7,1.27-1.23,1.85-1.9c1.2-1.37,1.85-2.97,2-4.81c0.13-1.51,0.41-3,0.58-4.5c0.07-0.59-0.05-1.21,0-1.81
	c0.06-0.82,0.09-1.67,0.33-2.45c0.56-1.79,0.85-3.7,2-5.27c0.51-0.7-0.17-3.14-1.11-3.76c-0.93-0.62-1.5-1.45-1.92-2.46
	c-0.14-0.33-0.5-0.55-0.73-0.85c-0.29-0.36-0.51-0.78-0.83-1.11c-0.53-0.55-1.06-1.13-1.69-1.56c-1.73-1.19-2.68-3-3.72-4.7
	c-0.91-1.49-1.65-3.13-2.19-4.79c-0.52-1.61-0.85-3.28-0.74-5.06c0.08-1.22-0.24-2.46,0.02-3.73c0.41-1.98,0.92-3.84,1.91-5.67
	c0.87-1.6,4.21-3.65,4.34-3.81c0.88-1.12,2.24-0.99,3.37-1.2c1.16-0.21,2.69-0.24,3.59,0.36c1.12,0.75,2.45,0.92,3.48,1.74
	c0.73,0.57,1.48,2.35,1.26,3.16c-0.3,1.13-0.8,1.5-1.93,1.25c-1.16-0.26-2.32-0.57-3.45-0.97c-1.55-0.55-3.09-0.03-4.12,1.18
	c-2.95,3.45-2,7.09-0.63,10.74c1.13,3.02,3.59,5.16,5.3,7.79c1.98,3.04,5.05,4.57,7.97,6.33c1.16,0.7,2.45,0.45,3.72,0.22
	c1.03-0.19,2.08-0.4,3.12-0.38c4.36,0.07,8.71,0.21,13.06,0.36c0.34,0.01,0.68,0.22,1.02,0.34c0.18,0.06,0.49,0.22,0.53,0.17
	c0.62-0.82,1.2-0.15,1.8,0.01c0.36,0.09,0.76,0.17,1.12,0.11c3.52-0.59,6.79,0.6,10.09,1.46c2.64,0.69,5.26,1.16,7.99,1.07
	c2.93-0.1,5.76,0.52,8.56,1.42c1,0.32,2.15,0.21,3.23,0.27c0.31,0.02,0.62-0.08,0.92-0.04c2.99,0.45,5.87-0.27,8.74-0.9
	c1.59-0.35,3.15-0.87,4.69-1.43c0.58-0.21,1.04-0.73,1.57-1.1c0.53-0.37,1.04-0.77,1.6-1.07c0.96-0.5,1.56-0.08,1.57,1.03
	c0,0.27,0,0.54,0,0.88c0.18-0.04,0.34-0.07,0.5-0.1c0.81-0.15,1.06,0.09,0.73,0.85c-0.45,1.04-0.26,1.79,0.66,2.46
	c0.69,0.5,1.31,1.11,1.95,1.67c1.07,0.93,1.71,2.06,1.92,3.51c0.15,1.03,0.6,2.03,1.06,2.98c1.01,2.09,0.78,2.32-0.6,3.91
	c-0.59,0.69-1.37,1.33-2.2,1.66c-0.8,0.32-1.88,0.51-2.65,0.23c-2-0.71-3.8-0.47-5.65,0.43c-1.4,0.68-2.88,1.2-4.29,1.85
	c-1.45,0.67-2.68,1.56-3.51,3.02c-2.13,2.11-1.29,4.25-0.27,7.64c0.15,0.51,0.86,0.92,1.21,1.45c1.32,2,2.56,4.05,3.9,6.04
	c0.75,1.1,1.6,2.14,2.48,3.14c0.22,0.25,0.73,0.25,1.09,0.4c0.71,0.29,1.52,0.47,2.09,0.95c0.39,0.32,0.71,1.17,0.55,1.59
	c-0.2,0.54-0.87,1.19-1.41,1.27c-1.31,0.18-2.67,0.15-3.99,0.04c-1.63-0.13-2.21-1.68-3.2-2.66c-0.13-0.13-0.14-0.4-0.28-0.51
	c-1.33-1.01-2.66-2.02-4.02-3c-1.31-0.94-2.66-1.8-3.97-2.75c-0.85-0.62-1.66-1.31-2.47-1.99c-1.72-1.44-3.42-2.89-5.15-4.32
	c-0.22-0.18-0.56-0.25-0.86-0.28c-1.27-0.1-2.38,0.54-3.24,1.25c-0.73,0.6-1.18,1.69-1.46,2.65c-0.59,2.1-0.98,4.27-1.47,6.4
	c-0.36,1.53,1.2,3.77,1.26,3.68c0.81,0.49,1.72,0.88,2.41,1.51c0.95,0.87,0.61,2.24-0.64,2.44c-1.57,0.25-3.2,0.32-4.79,0.19
	c-0.59-0.05-1.36-0.77-1.64-1.37c-1.83-3.99-3.06-8.15-3.56-12.53c-0.17-1.52-0.63-3.01-0.97-4.51c-0.25-1.1-1.09-1.38-2.06-1.34
	c-1.1,0.04-2.2,0.16-3.3,0.24c-0.07,0.01-0.15,0.02-0.2-0.01c-1.67-1.12-3.35-0.14-5.02-0.01c-0.24,0.02-0.48,0.17-0.72,0.27
	c-0.46,0.19-0.91,0.5-1.38,0.54c-1.12,0.1-2.26,0.03-3.38,0.12c-0.35,0.03-0.77,0.24-1,0.51c-0.27,0.33-0.35,0.81-0.54,1.2
	c-0.59,1.2-1.17,2.41-1.81,3.58c-0.71,1.31-1.75,2.51-1.62,4.12c0.04,0.54,0.29,1.16,0.65,1.56c1.07,1.2,2.22,2.33,3.4,3.43
	c0.23,0.22,0.72,0.33,1.04,0.25c1.21-0.29,2.2,0.13,3,0.94c0.32,0.32,0.56,0.99,0.44,1.38c-0.15,0.5-0.66,1.18-1.09,1.25
	c-1.69,0.25-3.4,0.38-5.11,0.35c-0.69-0.01-1.44-0.43-2.06-0.83c-2.2-1.41-4.25-2.98-5.77-5.19c-0.69-1-1.64-1.84-2.51-2.7
	c-0.79-0.78-1.02-1.64-1.02-2.76C656.95,304.6,656.71,302.67,656.54,300.41z"/>
<path id="icono_panda_gigante" class="st13" d="M131.29,313.09c-1.04-1.02-1.48-2.49-1.18-3.91l10.13-54.97l7.96-36.7l2.24-8.31
	c0.26-0.98,0.87-1.83,1.71-2.41l65.95-45.55c0.69-0.48,1.51-0.75,2.35-0.77l101.24-3.21c0.56-0.02,1.11-0.14,1.62-0.36l10.4-4.54
	c0.55-0.24,1.15-0.37,1.76-0.37h7.7c0.65,0,1.3,0.15,1.89,0.43l16.55,7.87c0.31,0.15,0.63,0.26,0.96,0.33l7.99,1.71
	c0.44,0.1,0.9,0.12,1.35,0.08l10.57-1.03c1.4-0.14,2.78,0.41,3.7,1.45l1.49,1.69c1.77,2.01,4.95,1.95,6.65-0.12l3.5-4.27
	c0.83-1.01,2.07-1.59,3.38-1.59h0.55c2.4,0,4.35,1.92,4.35,4.3l0,8.31c0,1.53,0.82,2.94,2.16,3.71l10.2,5.87
	c0.84,0.49,1.5,1.24,1.86,2.13l6.66,16.66c0.25,0.63,0.65,1.19,1.16,1.64l12.47,10.93c1.65,1.45,1.94,3.88,0.68,5.67l-8.49,12.03
	c-0.21,0.29-0.45,0.56-0.73,0.8l-7.16,6.1c-0.86,0.73-1.98,1.11-3.11,1.03l-7.89-0.5c-0.51-0.03-1.03,0.03-1.52,0.17l-7.51,2.22
	c-0.4,0.12-0.82,0.18-1.25,0.18h-15.63c-1.09,0-2.15-0.41-2.95-1.14l-5.97-5.44c-2.42-2.21-6.34-1.06-7.16,2.09l-11.2,43.25
	c-0.56,2.17,0.66,4.4,2.8,5.13l15.81,5.36c1.06,0.36,1.95,1.12,2.46,2.1l4.84,9.33c0.31,0.61,0.48,1.28,0.48,1.96v5.05
	c0,1.84-1.19,3.48-2.96,4.07l-18.66,6.22c-0.45,0.15-0.92,0.23-1.39,0.23h-28.11c-0.93,0-1.83-0.29-2.58-0.84l-54.1-39.38
	c-1.11-0.81-1.77-2.09-1.77-3.46v-10.29c0-3.4-3.8-5.45-6.69-3.62l-25.69,16.29c-1.64,1.04-2.38,3.02-1.81,4.86l6.85,22.4
	c0.5,1.63,1.92,2.81,3.62,3.02l19.92,2.46c2.18,0.27,3.81,2.1,3.81,4.26l0,0c0,2.37-1.95,4.3-4.35,4.3h-54.45
	c-1.4,0-2.71-0.66-3.52-1.78l-24.48-33.46c-0.49-0.67-1.17-1.19-1.95-1.49l-6.81-2.62c-2.19-0.84-4.66,0.19-5.58,2.33l-5.62,13.14
	c-0.94,2.2,0.11,11.51,2.34,12.42l2.89,1.18c1.63,0.66,2.69,2.23,2.69,3.97v2.01c0,2.37-1.95,4.3-4.35,4.3h-36.3
	c-1.15,0-2.26-0.45-3.07-1.26L131.29,313.09z"/>
<path id="icono_panda_rojo" class="st7" d="M479.3,275.83c4.88-1.9,9.88-2.99,15.11-1.95c3.28,0.65,5.45,2.49,5.68,6
	c0.3,4.58,0.04,9.21-0.24,13.81c-0.22,3.68-0.74,7.36-1.28,11.01c-0.44,2.97,0.41,5.16,2.78,6.77c2.24,1.52,4.32,3.33,6.65,4.66
	c4.58,2.62,9.26,1.81,13.88-0.08c0.21-0.09,0.4-0.26,0.57-0.42c0.82-0.76,0.75-1.48-0.15-2.07c-0.54-0.35-1.15-0.57-1.69-0.93
	c-2.49-1.69-3.39-3.62-2.45-6.57c1.63-5.1,4.41-9.44,9.09-11.83c5.01-2.56,10.35-2.87,15.72-1.54c1.73,0.43,2.56,2.49,2.19,4.5
	c-0.5,2.66-1.11,5.29-1.59,7.96c-0.64,3.56,0.26,6.37,2.5,7.65c1.72,0.99,3.47,2.01,5.32,2.64c2.01,0.69,4.79,2.02,6.9,2.23
	c0.84,0.08,3.57-1.13,1.04-4.04c-1.28-1.47-1.88-3.59-0.86-5.38c1.85-3.24,3.97-6.33,6.17-9.32c0.92-1.26,1.99-0.95,2.82,0.42
	c1.81,3,3.57,6.03,5.43,9c2.15,3.43,4.39,5.75,8.02,7.69c5.78,3.09,11.87,3.25,18.06,1.95c0.79-0.17,2.06-0.94,2.06-1.45
	c0.01-0.96-0.6-2.03-1.21-2.85c-0.38-0.51-1.19-0.71-1.84-0.91c-6.71-2.09-11.44-5.61-14.43-12.15c-1.15-2.52-0.6-4.41,1.68-5.81
	c1.22-0.75,2.63-1.32,4.01-1.55c2.97-0.49,5.97-0.75,8.96-1.01c3.38-0.3,6.56,0.52,9.46,2.36c2.41,1.53,4.68,1.19,7.63-1.38
	c1.44-1.25,1.59-2.65,0.44-5.55c-0.57-1.46-0.59-2.75,0.04-4.25c0.46-1.1,0.64-2.49,0.5-3.69c-0.39-3.48-2.11-6.3-4.16-8.98
	c-0.73-0.96-1.44-2.49-1.27-3.59c0.5-3.07-1.19-4.65-4.55-3.71c-0.53,0.15-1.15,0.36-1.64,0.21c-6.45-1.93-13.12-2.06-19.73-2.66
	c-3.15-0.29-6.26-0.4-9.29-1.74c-5.31-2.36-10.68-4.63-16.17-6.45c-8.87-2.94-17.91-5.24-27.2-6.16
	c-6.91-0.68-13.82-1.28-20.74-0.32c-5.2,0.72-10.43,1.32-15.58,2.36c-6.59,1.34-13.2,2.75-19.65,4.72
	c-4.85,1.48-9.59,3.58-14.12,5.97c-9.51,5.01-17.32,12.19-22.5,22.24c-1.92,3.73-3.61,7.62-3.36,12.08c0.25,4.38,3.1,6.76,7.07,5.74
	c1.38-0.35,2.8-0.93,3.94-1.79c4.91-3.69,9.62-7.68,14.61-11.25c4.63-3.32,9.5-6.27,14.29-9.33
	C477.21,276.43,478.74,276.05,479.3,275.83z"/>
<line id="linea_base" class="st14" x1="74.23" y1="318.01" x2="777.58" y2="318.01"/>
</svg>
