<?xml version="1.0" encoding="utf-8"?>
<!-- Generator: Adobe Illustrator 24.2.3, SVG Export Plug-In . SVG Version: 6.00 Build 0)  -->
<svg version="1.1" id="graficos" xmlns="http://www.w3.org/2000/svg" xmlns:xlink="http://www.w3.org/1999/xlink" x="0px" y="0px"
	 viewBox="0 0 329 367" style="enable-background:new 0 0 329 367;" xml:space="preserve">
<style type="text/css">
	.st0{fill:none;}
	.st1{fill:#1D1D1B;}
	.st2{font-family:'Roboto-Regular';}
	.st3{font-size:32.0253px;}
	.st4{fill:#DFDFDE;}
	.st5{fill:#777776;}
	.st6{font-family:'Roboto-Bold';}
	.st7{font-size:36.2953px;}
	.st8{font-family:'Roboto-Medium';}
	.st9{font-size:28px;}
	.st10{fill:none;stroke:#1D1E1C;stroke-width:0.9285;stroke-miterlimit:10;}

	/* The animation code */
	@keyframes aparece{
  50%{opacity: 1;}
  100%{opacity: 0;}

	/* The element to apply the animation to */
	.panda{animation: aparece 2s 2s;}

</style>

<rect x="-0.16" y="-0.1" class="st0" width="328" height="92.65"/>
<text transform="matrix(1 0 0 1 7.8213 27.291)"><tspan x="0" y="0" class="st1 st2 st3">Peso y medidas de un </tspan><tspan x="59.09" y="38.43" class="st1 st2 st3">panda adulto:</tspan></text>
<path id="sombra_panda" class="st4" d="M-0.3,284.04l164.63-0.85l164.63,0.85v1.71c-27.44,6.01-54.88,9.15-82.32,11.29
	c-13.72,1.34-27.44,1.63-41.16,2.42c-13.72,0.48-27.44,0.52-41.16,0.8c-13.72-0.24-27.44-0.35-41.16-0.76
	c-13.72-0.81-27.44-1.07-41.16-2.42c-27.44-2.13-54.88-5.28-82.32-11.33V284.04z"/>
<path id="panda" class="st5" d="M78.3,211.76c8.91-3.38,18.06-5.31,27.61-3.47c5.99,1.16,9.96,4.42,10.37,10.67
	c0.54,8.14,0.06,16.38-0.44,24.55c-0.4,6.55-1.35,13.08-2.34,19.57c-0.8,5.28,0.74,9.18,5.07,12.04c4.09,2.71,7.9,5.92,12.15,8.28
	c8.37,4.65,16.92,3.22,25.35-0.13c0.38-0.15,0.72-0.46,1.04-0.74c1.5-1.35,1.38-2.63-0.28-3.69c-0.98-0.63-2.11-1.02-3.08-1.66
	c-4.56-3-6.2-6.44-4.48-11.68c2.98-9.07,8.05-16.79,16.61-21.04c9.15-4.55,18.91-5.1,28.72-2.75c3.16,0.76,4.68,4.43,4,8
	c-0.91,4.73-2.03,9.41-2.91,14.15c-1.17,6.34,0.47,11.32,4.57,13.6c3.15,1.75,6.34,3.57,9.72,4.69c3.68,1.22,7.57,1.95,11.42,2.32
	c1.53,0.15,3.2-1.22,4.8-1.9c-0.57-1.22-1.04-2.49-1.72-3.64c-1.78-3-3.44-6.39-1.58-9.57c3.39-5.76,7.26-11.25,11.27-16.57
	c1.69-2.24,3.63-1.7,5.15,0.74c3.31,5.33,6.53,10.73,9.93,16c3.92,6.09,7.61,12.47,14.26,15.92c10.57,5.5,21.68,5.78,32.99,3.46
	c1.44-0.3,3.76-1.67,3.77-2.57c0.03-1.7-1.1-3.62-2.2-5.07c-0.69-0.9-2.17-1.26-3.37-1.62c-12.26-3.72-20.49-12.21-25.96-23.85
	c-2.11-4.48-1.1-7.84,3.07-10.33c2.23-1.33,4.8-2.35,7.33-2.76c5.42-0.87,10.9-1.33,16.37-1.8c6.17-0.54,11.99,0.93,17.29,4.19
	c4.41,2.72,8.55,2.11,13.94-2.45c2.62-2.22,2.9-4.7,0.81-9.87c-1.05-2.6-1.07-4.89,0.08-7.55c0.84-1.96,1.17-4.43,0.92-6.57
	c-0.72-6.18-3.86-11.2-7.61-15.97c-1.34-1.7-2.64-4.42-2.31-6.38c0.92-5.47-2.18-8.27-8.32-6.59c-0.97,0.27-2.1,0.64-3,0.38
	c-11.79-3.44-23.97-3.66-36.04-4.74c-5.76-0.51-11.44-0.7-16.98-3.1c-9.71-4.2-19.52-8.23-29.56-11.47
	c-16.21-5.22-32.72-9.32-49.7-10.95c-12.62-1.21-25.25-2.27-37.91-0.58c-9.51,1.28-19.06,2.35-28.47,4.2
	c-12.05,2.37-24.13,4.89-35.9,8.39c-8.85,2.64-17.52,6.37-25.8,10.61c-17.38,8.91-31.66,21.67-41.11,39.55
	c-3.5,6.63-6.6,13.55-6.14,21.47c0.46,7.79,5.67,12.01,12.92,10.2c2.51-0.63,5.11-1.66,7.21-3.19c8.97-6.55,17.59-13.65,26.69-20
	c8.46-5.9,17.36-11.14,26.11-16.6C74.48,212.83,77.27,212.16,78.3,211.76z"/>
<rect x="95.39" y="107.47" class="st0" width="137.89" height="31.49"/>
<text transform="matrix(1 0 0 1 100.1714 134.6963)" class="st5 st6 st7">5 a 6 kg</text>
<g>
	<text transform="matrix(1 0 0 1 3.7471 366.916)" class="st1 st8 st9">37 a 47 cm</text>
</g>
<g>
	<text transform="matrix(1 0 0 1 170.8672 366.916)" class="st1 st8 st9">56 a 63 cm</text>
</g>
<polyline id="linea_abajo_izquierda" class="st10" points="3.22,333.8 3.22,316.95 143.01,316.95 143.01,333.8 "/>
<polyline id="linea_abajo_derecha" class="st10" points="152.26,333.8 152.26,316.95 328.21,316.95 328.21,337.08 "/>
</svg>
